<?xml version="1.0" encoding="UTF-8" standalone="no"?>
<!DOCTYPE svg PUBLIC "-//W3C//DTD SVG 1.1//EN"
 "http://www.w3.org/Graphics/SVG/1.1/DTD/svg11.dtd">
<!-- Generated by graphviz version 12.1.2 (20240928.0832)
 -->
<!-- Title: chair_models Pages: 1 -->
<svg width="336pt" height="198pt"
 viewBox="0.00 0.00 335.86 197.60" xmlns="http://www.w3.org/2000/svg" xmlns:xlink="http://www.w3.org/1999/xlink">
<g id="graph0" class="graph" transform="scale(1 1) rotate(0) translate(4 193.6)">
<title>chair_models</title>
<polygon fill="white" stroke="none" points="-4,4 -4,-193.6 331.86,-193.6 331.86,4 -4,4"/>
<!-- chair_models -->
<g id="node1" class="node">
<title>chair_models</title>
<polygon fill="#efefef" stroke="none" points="46.2,-107.8 46.2,-143.4 281.66,-143.4 281.66,-107.8 46.2,-107.8"/>
<polygon fill="none" stroke="black" points="46.2,-107.8 46.2,-143.4 281.66,-143.4 281.66,-107.8 46.2,-107.8"/>
<text text-anchor="start" x="53.2" y="-121.2" font-family="Arial Bold" font-size="18.00">chair_models</text>
<text text-anchor="start" x="150.17" y="-121.2" font-family="Arial" font-size="14.00">    </text>
<text text-anchor="start" x="181.29" y="-121.2" font-family="Arial" font-size="14.00" fill="#666666">[BASE TABLE]</text>
<polygon fill="none" stroke="black" points="46.2,-77 46.2,-107.8 281.66,-107.8 281.66,-77 46.2,-77"/>
<text text-anchor="start" x="53.2" y="-89.2" font-family="Arial" font-size="14.00">name </text>
<text text-anchor="start" x="92.11" y="-89.2" font-family="Arial" font-size="14.00" fill="#666666">[varchar(50)]</text>
<polygon fill="none" stroke="black" points="46.2,-46.2 46.2,-77 281.66,-77 281.66,-46.2 46.2,-46.2"/>
<text text-anchor="start" x="53.2" y="-58.4" font-family="Arial" font-size="14.00">speed </text>
<text text-anchor="start" x="95.23" y="-58.4" font-family="Arial" font-size="14.00" fill="#666666">[int]</text>
<polygon fill="none" stroke="black" stroke-width="3" points="44.7,-44.7 44.7,-144.9 283.16,-144.9 283.16,-44.7 44.7,-44.7"/>
</g>
</g>
</svg>
