<?xml version="1.0" encoding="UTF-8" standalone="no"?>
<!DOCTYPE svg PUBLIC "-//W3C//DTD SVG 1.1//EN"
 "http://www.w3.org/Graphics/SVG/1.1/DTD/svg11.dtd">
<!-- Generated by graphviz version 12.1.2 (20240928.0832)
 -->
<!-- Title: chair_locations Pages: 1 -->
<svg width="349pt" height="290pt"
 viewBox="0.00 0.00 348.85 290.00" xmlns="http://www.w3.org/2000/svg" xmlns:xlink="http://www.w3.org/1999/xlink">
<g id="graph0" class="graph" transform="scale(1 1) rotate(0) translate(4 286)">
<title>chair_locations</title>
<polygon fill="white" stroke="none" points="-4,4 -4,-286 344.85,-286 344.85,4 -4,4"/>
<!-- chair_locations -->
<g id="node1" class="node">
<title>chair_locations</title>
<polygon fill="#efefef" stroke="none" points="46.2,-200.2 46.2,-235.8 294.65,-235.8 294.65,-200.2 46.2,-200.2"/>
<polygon fill="none" stroke="black" points="46.2,-200.2 46.2,-235.8 294.65,-235.8 294.65,-200.2 46.2,-200.2"/>
<text text-anchor="start" x="53.2" y="-213.6" font-family="Arial Bold" font-size="18.00">chair_locations</text>
<text text-anchor="start" x="163.16" y="-213.6" font-family="Arial" font-size="14.00">    </text>
<text text-anchor="start" x="194.28" y="-213.6" font-family="Arial" font-size="14.00" fill="#666666">[BASE TABLE]</text>
<polygon fill="none" stroke="black" points="46.2,-169.4 46.2,-200.2 294.65,-200.2 294.65,-169.4 46.2,-169.4"/>
<text text-anchor="start" x="53.2" y="-181.6" font-family="Arial" font-size="14.00">id </text>
<text text-anchor="start" x="67.99" y="-181.6" font-family="Arial" font-size="14.00" fill="#666666">[varchar(26)]</text>
<polygon fill="none" stroke="black" points="46.2,-138.6 46.2,-169.4 294.65,-169.4 294.65,-138.6 46.2,-138.6"/>
<text text-anchor="start" x="53.2" y="-150.8" font-family="Arial" font-size="14.00">chair_id </text>
<text text-anchor="start" x="106.12" y="-150.8" font-family="Arial" font-size="14.00" fill="#666666">[varchar(26)]</text>
<polygon fill="none" stroke="black" points="46.2,-107.8 46.2,-138.6 294.65,-138.6 294.65,-107.8 46.2,-107.8"/>
<text text-anchor="start" x="53.2" y="-120" font-family="Arial" font-size="14.00">latitude </text>
<text text-anchor="start" x="102.23" y="-120" font-family="Arial" font-size="14.00" fill="#666666">[int]</text>
<polygon fill="none" stroke="black" points="46.2,-77 46.2,-107.8 294.65,-107.8 294.65,-77 46.2,-77"/>
<text text-anchor="start" x="53.2" y="-89.2" font-family="Arial" font-size="14.00">longitude </text>
<text text-anchor="start" x="113.92" y="-89.2" font-family="Arial" font-size="14.00" fill="#666666">[int]</text>
<polygon fill="none" stroke="black" points="46.2,-46.2 46.2,-77 294.65,-77 294.65,-46.2 46.2,-46.2"/>
<text text-anchor="start" x="53.2" y="-58.4" font-family="Arial" font-size="14.00">created_at </text>
<text text-anchor="start" x="123.25" y="-58.4" font-family="Arial" font-size="14.00" fill="#666666">[datetime(6)]</text>
<polygon fill="none" stroke="black" stroke-width="3" points="44.7,-44.7 44.7,-237.3 296.15,-237.3 296.15,-44.7 44.7,-44.7"/>
</g>
</g>
</svg>
