<?xml version="1.0" encoding="UTF-8" standalone="no"?>
<!DOCTYPE svg PUBLIC "-//W3C//DTD SVG 1.1//EN"
 "http://www.w3.org/Graphics/SVG/1.1/DTD/svg11.dtd">
<!-- Generated by graphviz version 12.1.2 (20240928.0832)
 -->
<!-- Title: chairs Pages: 1 -->
<svg width="291pt" height="382pt"
 viewBox="0.00 0.00 291.04 382.40" xmlns="http://www.w3.org/2000/svg" xmlns:xlink="http://www.w3.org/1999/xlink">
<g id="graph0" class="graph" transform="scale(1 1) rotate(0) translate(4 378.4)">
<title>chairs</title>
<polygon fill="white" stroke="none" points="-4,4 -4,-378.4 287.04,-378.4 287.04,4 -4,4"/>
<!-- chairs -->
<g id="node1" class="node">
<title>chairs</title>
<polygon fill="#efefef" stroke="none" points="46.2,-292.6 46.2,-328.2 236.84,-328.2 236.84,-292.6 46.2,-292.6"/>
<polygon fill="none" stroke="black" points="46.2,-292.6 46.2,-328.2 236.84,-328.2 236.84,-292.6 46.2,-292.6"/>
<text text-anchor="start" x="57.79" y="-306" font-family="Arial Bold" font-size="18.00">chairs</text>
<text text-anchor="start" x="100.76" y="-306" font-family="Arial" font-size="14.00">    </text>
<text text-anchor="start" x="131.88" y="-306" font-family="Arial" font-size="14.00" fill="#666666">[BASE TABLE]</text>
<polygon fill="none" stroke="black" points="46.2,-261.8 46.2,-292.6 236.84,-292.6 236.84,-261.8 46.2,-261.8"/>
<text text-anchor="start" x="53.2" y="-274" font-family="Arial" font-size="14.00">id </text>
<text text-anchor="start" x="67.99" y="-274" font-family="Arial" font-size="14.00" fill="#666666">[varchar(26)]</text>
<polygon fill="none" stroke="black" points="46.2,-231 46.2,-261.8 236.84,-261.8 236.84,-231 46.2,-231"/>
<text text-anchor="start" x="53.2" y="-243.2" font-family="Arial" font-size="14.00">owner_id </text>
<text text-anchor="start" x="113.9" y="-243.2" font-family="Arial" font-size="14.00" fill="#666666">[varchar(26)]</text>
<polygon fill="none" stroke="black" points="46.2,-200.2 46.2,-231 236.84,-231 236.84,-200.2 46.2,-200.2"/>
<text text-anchor="start" x="53.2" y="-212.4" font-family="Arial" font-size="14.00">name </text>
<text text-anchor="start" x="92.11" y="-212.4" font-family="Arial" font-size="14.00" fill="#666666">[varchar(30)]</text>
<polygon fill="none" stroke="black" points="46.2,-169.4 46.2,-200.2 236.84,-200.2 236.84,-169.4 46.2,-169.4"/>
<text text-anchor="start" x="53.2" y="-181.6" font-family="Arial" font-size="14.00">model </text>
<text text-anchor="start" x="95.22" y="-181.6" font-family="Arial" font-size="14.00" fill="#666666">[text]</text>
<polygon fill="none" stroke="black" points="46.2,-138.6 46.2,-169.4 236.84,-169.4 236.84,-138.6 46.2,-138.6"/>
<text text-anchor="start" x="53.2" y="-150.8" font-family="Arial" font-size="14.00">is_active </text>
<text text-anchor="start" x="111.56" y="-150.8" font-family="Arial" font-size="14.00" fill="#666666">[tinyint(1)]</text>
<polygon fill="none" stroke="black" points="46.2,-107.8 46.2,-138.6 236.84,-138.6 236.84,-107.8 46.2,-107.8"/>
<text text-anchor="start" x="53.2" y="-120" font-family="Arial" font-size="14.00">access_token </text>
<text text-anchor="start" x="142.7" y="-120" font-family="Arial" font-size="14.00" fill="#666666">[varchar(255)]</text>
<polygon fill="none" stroke="black" points="46.2,-77 46.2,-107.8 236.84,-107.8 236.84,-77 46.2,-77"/>
<text text-anchor="start" x="53.2" y="-89.2" font-family="Arial" font-size="14.00">created_at </text>
<text text-anchor="start" x="123.25" y="-89.2" font-family="Arial" font-size="14.00" fill="#666666">[datetime(6)]</text>
<polygon fill="none" stroke="black" points="46.2,-46.2 46.2,-77 236.84,-77 236.84,-46.2 46.2,-46.2"/>
<text text-anchor="start" x="53.2" y="-58.4" font-family="Arial" font-size="14.00">updated_at </text>
<text text-anchor="start" x="127.16" y="-58.4" font-family="Arial" font-size="14.00" fill="#666666">[datetime(6)]</text>
<polygon fill="none" stroke="black" stroke-width="3" points="44.7,-44.7 44.7,-329.7 238.34,-329.7 238.34,-44.7 44.7,-44.7"/>
</g>
</g>
</svg>
