<?xml version="1.0" encoding="UTF-8" standalone="no"?>
<!DOCTYPE svg PUBLIC "-//W3C//DTD SVG 1.1//EN"
 "http://www.w3.org/Graphics/SVG/1.1/DTD/svg11.dtd">
<!-- Generated by graphviz version 12.1.2 (20240928.0832)
 -->
<!-- Title: coupons Pages: 1 -->
<svg width="299pt" height="290pt"
 viewBox="0.00 0.00 298.88 290.00" xmlns="http://www.w3.org/2000/svg" xmlns:xlink="http://www.w3.org/1999/xlink">
<g id="graph0" class="graph" transform="scale(1 1) rotate(0) translate(4 286)">
<title>coupons</title>
<polygon fill="white" stroke="none" points="-4,4 -4,-286 294.88,-286 294.88,4 -4,4"/>
<!-- coupons -->
<g id="node1" class="node">
<title>coupons</title>
<polygon fill="#efefef" stroke="none" points="46.2,-200.2 46.2,-235.8 244.68,-235.8 244.68,-200.2 46.2,-200.2"/>
<polygon fill="none" stroke="black" points="46.2,-200.2 46.2,-235.8 244.68,-235.8 244.68,-200.2 46.2,-200.2"/>
<text text-anchor="start" x="53.2" y="-213.6" font-family="Arial Bold" font-size="18.00">coupons</text>
<text text-anchor="start" x="113.19" y="-213.6" font-family="Arial" font-size="14.00">    </text>
<text text-anchor="start" x="144.31" y="-213.6" font-family="Arial" font-size="14.00" fill="#666666">[BASE TABLE]</text>
<polygon fill="none" stroke="black" points="46.2,-169.4 46.2,-200.2 244.68,-200.2 244.68,-169.4 46.2,-169.4"/>
<text text-anchor="start" x="53.2" y="-181.6" font-family="Arial" font-size="14.00">user_id </text>
<text text-anchor="start" x="103.01" y="-181.6" font-family="Arial" font-size="14.00" fill="#666666">[varchar(26)]</text>
<polygon fill="none" stroke="black" points="46.2,-138.6 46.2,-169.4 244.68,-169.4 244.68,-138.6 46.2,-138.6"/>
<text text-anchor="start" x="53.2" y="-150.8" font-family="Arial" font-size="14.00">code </text>
<text text-anchor="start" x="87.45" y="-150.8" font-family="Arial" font-size="14.00" fill="#666666">[varchar(255)]</text>
<polygon fill="none" stroke="black" points="46.2,-107.8 46.2,-138.6 244.68,-138.6 244.68,-107.8 46.2,-107.8"/>
<text text-anchor="start" x="53.2" y="-120" font-family="Arial" font-size="14.00">discount </text>
<text text-anchor="start" x="109.23" y="-120" font-family="Arial" font-size="14.00" fill="#666666">[int]</text>
<polygon fill="none" stroke="black" points="46.2,-77 46.2,-107.8 244.68,-107.8 244.68,-77 46.2,-77"/>
<text text-anchor="start" x="53.2" y="-89.2" font-family="Arial" font-size="14.00">created_at </text>
<text text-anchor="start" x="123.25" y="-89.2" font-family="Arial" font-size="14.00" fill="#666666">[datetime(6)]</text>
<polygon fill="none" stroke="black" points="46.2,-46.2 46.2,-77 244.68,-77 244.68,-46.2 46.2,-46.2"/>
<text text-anchor="start" x="53.2" y="-58.4" font-family="Arial" font-size="14.00">used_by </text>
<text text-anchor="start" x="110.02" y="-58.4" font-family="Arial" font-size="14.00" fill="#666666">[varchar(26)]</text>
<polygon fill="none" stroke="black" stroke-width="3" points="44.7,-44.7 44.7,-237.3 246.18,-237.3 246.18,-44.7 44.7,-44.7"/>
</g>
</g>
</svg>
