<?xml version="1.0" encoding="UTF-8" standalone="no"?>
<!DOCTYPE svg PUBLIC "-//W3C//DTD SVG 1.1//EN"
 "http://www.w3.org/Graphics/SVG/1.1/DTD/svg11.dtd">
<!-- Generated by graphviz version 12.1.2 (20240928.0832)
 -->
<!-- Title: payment_tokens Pages: 1 -->
<svg width="357pt" height="228pt"
 viewBox="0.00 0.00 356.86 228.40" xmlns="http://www.w3.org/2000/svg" xmlns:xlink="http://www.w3.org/1999/xlink">
<g id="graph0" class="graph" transform="scale(1 1) rotate(0) translate(4 224.4)">
<title>payment_tokens</title>
<polygon fill="white" stroke="none" points="-4,4 -4,-224.4 352.86,-224.4 352.86,4 -4,4"/>
<!-- payment_tokens -->
<g id="node1" class="node">
<title>payment_tokens</title>
<polygon fill="#efefef" stroke="none" points="46.2,-138.6 46.2,-174.2 302.66,-174.2 302.66,-138.6 46.2,-138.6"/>
<polygon fill="none" stroke="black" points="46.2,-138.6 46.2,-174.2 302.66,-174.2 302.66,-138.6 46.2,-138.6"/>
<text text-anchor="start" x="53.2" y="-152" font-family="Arial Bold" font-size="18.00">payment_tokens</text>
<text text-anchor="start" x="171.18" y="-152" font-family="Arial" font-size="14.00">    </text>
<text text-anchor="start" x="202.29" y="-152" font-family="Arial" font-size="14.00" fill="#666666">[BASE TABLE]</text>
<polygon fill="none" stroke="black" points="46.2,-107.8 46.2,-138.6 302.66,-138.6 302.66,-107.8 46.2,-107.8"/>
<text text-anchor="start" x="53.2" y="-120" font-family="Arial" font-size="14.00">user_id </text>
<text text-anchor="start" x="103.01" y="-120" font-family="Arial" font-size="14.00" fill="#666666">[varchar(26)]</text>
<polygon fill="none" stroke="black" points="46.2,-77 46.2,-107.8 302.66,-107.8 302.66,-77 46.2,-77"/>
<text text-anchor="start" x="53.2" y="-89.2" font-family="Arial" font-size="14.00">token </text>
<text text-anchor="start" x="91.34" y="-89.2" font-family="Arial" font-size="14.00" fill="#666666">[varchar(255)]</text>
<polygon fill="none" stroke="black" points="46.2,-46.2 46.2,-77 302.66,-77 302.66,-46.2 46.2,-46.2"/>
<text text-anchor="start" x="53.2" y="-58.4" font-family="Arial" font-size="14.00">created_at </text>
<text text-anchor="start" x="123.25" y="-58.4" font-family="Arial" font-size="14.00" fill="#666666">[datetime(6)]</text>
<polygon fill="none" stroke="black" stroke-width="3" points="44.7,-44.7 44.7,-175.7 304.16,-175.7 304.16,-44.7 44.7,-44.7"/>
</g>
</g>
</svg>
