<?xml version="1.0" encoding="UTF-8" standalone="no"?>
<!DOCTYPE svg PUBLIC "-//W3C//DTD SVG 1.1//EN"
 "http://www.w3.org/Graphics/SVG/1.1/DTD/svg11.dtd">
<!-- Generated by graphviz version 12.1.2 (20240928.0832)
 -->
<!-- Title: ride_statuses Pages: 1 -->
<svg width="678pt" height="321pt"
 viewBox="0.00 0.00 677.78 320.80" xmlns="http://www.w3.org/2000/svg" xmlns:xlink="http://www.w3.org/1999/xlink">
<g id="graph0" class="graph" transform="scale(1 1) rotate(0) translate(4 316.8)">
<title>ride_statuses</title>
<polygon fill="white" stroke="none" points="-4,4 -4,-316.8 673.78,-316.8 673.78,4 -4,4"/>
<!-- ride_statuses -->
<g id="node1" class="node">
<title>ride_statuses</title>
<polygon fill="#efefef" stroke="none" points="46.2,-231 46.2,-266.6 623.58,-266.6 623.58,-231 46.2,-231"/>
<polygon fill="none" stroke="black" points="46.2,-231 46.2,-266.6 623.58,-266.6 623.58,-231 46.2,-231"/>
<text text-anchor="start" x="226.15" y="-244.4" font-family="Arial Bold" font-size="18.00">ride_statuses</text>
<text text-anchor="start" x="319.13" y="-244.4" font-family="Arial" font-size="14.00">    </text>
<text text-anchor="start" x="350.25" y="-244.4" font-family="Arial" font-size="14.00" fill="#666666">[BASE TABLE]</text>
<polygon fill="none" stroke="black" points="46.2,-200.2 46.2,-231 623.58,-231 623.58,-200.2 46.2,-200.2"/>
<text text-anchor="start" x="53.2" y="-212.4" font-family="Arial" font-size="14.00">id </text>
<text text-anchor="start" x="67.99" y="-212.4" font-family="Arial" font-size="14.00" fill="#666666">[varchar(26)]</text>
<polygon fill="none" stroke="black" points="46.2,-169.4 46.2,-200.2 623.58,-200.2 623.58,-169.4 46.2,-169.4"/>
<text text-anchor="start" x="53.2" y="-181.6" font-family="Arial" font-size="14.00">ride_id </text>
<text text-anchor="start" x="99.12" y="-181.6" font-family="Arial" font-size="14.00" fill="#666666">[varchar(26)]</text>
<polygon fill="none" stroke="black" points="46.2,-138.6 46.2,-169.4 623.58,-169.4 623.58,-138.6 46.2,-138.6"/>
<text text-anchor="start" x="53.2" y="-150.8" font-family="Arial" font-size="14.00">status </text>
<text text-anchor="start" x="94.44" y="-150.8" font-family="Arial" font-size="14.00" fill="#666666">[enum(&#39;MATCHING&#39;,&#39;ENROUTE&#39;,&#39;PICKUP&#39;,&#39;CARRYING&#39;,&#39;ARRIVED&#39;,&#39;COMPLETED&#39;)]</text>
<polygon fill="none" stroke="black" points="46.2,-107.8 46.2,-138.6 623.58,-138.6 623.58,-107.8 46.2,-107.8"/>
<text text-anchor="start" x="53.2" y="-120" font-family="Arial" font-size="14.00">created_at </text>
<text text-anchor="start" x="123.25" y="-120" font-family="Arial" font-size="14.00" fill="#666666">[datetime(6)]</text>
<polygon fill="none" stroke="black" points="46.2,-77 46.2,-107.8 623.58,-107.8 623.58,-77 46.2,-77"/>
<text text-anchor="start" x="53.2" y="-89.2" font-family="Arial" font-size="14.00">app_sent_at </text>
<text text-anchor="start" x="134.16" y="-89.2" font-family="Arial" font-size="14.00" fill="#666666">[datetime(6)]</text>
<polygon fill="none" stroke="black" points="46.2,-46.2 46.2,-77 623.58,-77 623.58,-46.2 46.2,-46.2"/>
<text text-anchor="start" x="53.2" y="-58.4" font-family="Arial" font-size="14.00">chair_sent_at </text>
<text text-anchor="start" x="141.14" y="-58.4" font-family="Arial" font-size="14.00" fill="#666666">[datetime(6)]</text>
<polygon fill="none" stroke="black" stroke-width="3" points="44.7,-44.7 44.7,-268.1 625.08,-268.1 625.08,-44.7 44.7,-44.7"/>
</g>
</g>
</svg>
