<?xml version="1.0" encoding="UTF-8" standalone="no"?>
<!DOCTYPE svg PUBLIC "-//W3C//DTD SVG 1.1//EN"
 "http://www.w3.org/Graphics/SVG/1.1/DTD/svg11.dtd">
<!-- Generated by graphviz version 12.1.2 (20240928.0832)
 -->
<!-- Title: isuride Pages: 1 -->
<svg width="3530pt" height="438pt"
 viewBox="0.00 0.00 3529.95 438.00" xmlns="http://www.w3.org/2000/svg" xmlns:xlink="http://www.w3.org/1999/xlink">
<g id="graph0" class="graph" transform="scale(1 1) rotate(0) translate(4 434)">
<title>isuride</title>
<polygon fill="white" stroke="none" points="-4,4 -4,-434 3525.95,-434 3525.95,4 -4,4"/>
<!-- chair_locations -->
<g id="node1" class="node">
<title>chair_locations</title>
<polygon fill="#efefef" stroke="none" points="43.2,-274.2 43.2,-309.8 291.65,-309.8 291.65,-274.2 43.2,-274.2"/>
<polygon fill="none" stroke="black" points="43.2,-274.2 43.2,-309.8 291.65,-309.8 291.65,-274.2 43.2,-274.2"/>
<text text-anchor="start" x="50.2" y="-287.6" font-family="Arial Bold" font-size="18.00">chair_locations</text>
<text text-anchor="start" x="160.16" y="-287.6" font-family="Arial" font-size="14.00">    </text>
<text text-anchor="start" x="191.28" y="-287.6" font-family="Arial" font-size="14.00" fill="#666666">[BASE TABLE]</text>
<polygon fill="none" stroke="black" points="43.2,-243.4 43.2,-274.2 291.65,-274.2 291.65,-243.4 43.2,-243.4"/>
<text text-anchor="start" x="50.2" y="-255.6" font-family="Arial" font-size="14.00">id </text>
<text text-anchor="start" x="64.99" y="-255.6" font-family="Arial" font-size="14.00" fill="#666666">[varchar(26)]</text>
<polygon fill="none" stroke="black" points="43.2,-212.6 43.2,-243.4 291.65,-243.4 291.65,-212.6 43.2,-212.6"/>
<text text-anchor="start" x="50.2" y="-224.8" font-family="Arial" font-size="14.00">chair_id </text>
<text text-anchor="start" x="103.12" y="-224.8" font-family="Arial" font-size="14.00" fill="#666666">[varchar(26)]</text>
<polygon fill="none" stroke="black" points="43.2,-181.8 43.2,-212.6 291.65,-212.6 291.65,-181.8 43.2,-181.8"/>
<text text-anchor="start" x="50.2" y="-194" font-family="Arial" font-size="14.00">latitude </text>
<text text-anchor="start" x="99.23" y="-194" font-family="Arial" font-size="14.00" fill="#666666">[int]</text>
<polygon fill="none" stroke="black" points="43.2,-151 43.2,-181.8 291.65,-181.8 291.65,-151 43.2,-151"/>
<text text-anchor="start" x="50.2" y="-163.2" font-family="Arial" font-size="14.00">longitude </text>
<text text-anchor="start" x="110.92" y="-163.2" font-family="Arial" font-size="14.00" fill="#666666">[int]</text>
<polygon fill="none" stroke="black" points="43.2,-120.2 43.2,-151 291.65,-151 291.65,-120.2 43.2,-120.2"/>
<text text-anchor="start" x="50.2" y="-132.4" font-family="Arial" font-size="14.00">created_at </text>
<text text-anchor="start" x="120.25" y="-132.4" font-family="Arial" font-size="14.00" fill="#666666">[datetime(6)]</text>
</g>
<!-- chair_models -->
<g id="node2" class="node">
<title>chair_models</title>
<polygon fill="#efefef" stroke="none" points="395.7,-228 395.7,-263.6 631.15,-263.6 631.15,-228 395.7,-228"/>
<polygon fill="none" stroke="black" points="395.7,-228 395.7,-263.6 631.15,-263.6 631.15,-228 395.7,-228"/>
<text text-anchor="start" x="402.7" y="-241.4" font-family="Arial Bold" font-size="18.00">chair_models</text>
<text text-anchor="start" x="499.66" y="-241.4" font-family="Arial" font-size="14.00">    </text>
<text text-anchor="start" x="530.78" y="-241.4" font-family="Arial" font-size="14.00" fill="#666666">[BASE TABLE]</text>
<polygon fill="none" stroke="black" points="395.7,-197.2 395.7,-228 631.15,-228 631.15,-197.2 395.7,-197.2"/>
<text text-anchor="start" x="402.7" y="-209.4" font-family="Arial" font-size="14.00">name </text>
<text text-anchor="start" x="441.61" y="-209.4" font-family="Arial" font-size="14.00" fill="#666666">[varchar(50)]</text>
<polygon fill="none" stroke="black" points="395.7,-166.4 395.7,-197.2 631.15,-197.2 631.15,-166.4 395.7,-166.4"/>
<text text-anchor="start" x="402.7" y="-178.6" font-family="Arial" font-size="14.00">speed </text>
<text text-anchor="start" x="444.73" y="-178.6" font-family="Arial" font-size="14.00" fill="#666666">[int]</text>
</g>
<!-- chairs -->
<g id="node3" class="node">
<title>chairs</title>
<polygon fill="#efefef" stroke="none" points="735.1,-320.4 735.1,-356 925.74,-356 925.74,-320.4 735.1,-320.4"/>
<polygon fill="none" stroke="black" points="735.1,-320.4 735.1,-356 925.74,-356 925.74,-320.4 735.1,-320.4"/>
<text text-anchor="start" x="746.69" y="-333.8" font-family="Arial Bold" font-size="18.00">chairs</text>
<text text-anchor="start" x="789.67" y="-333.8" font-family="Arial" font-size="14.00">    </text>
<text text-anchor="start" x="820.79" y="-333.8" font-family="Arial" font-size="14.00" fill="#666666">[BASE TABLE]</text>
<polygon fill="none" stroke="black" points="735.1,-289.6 735.1,-320.4 925.74,-320.4 925.74,-289.6 735.1,-289.6"/>
<text text-anchor="start" x="742.1" y="-301.8" font-family="Arial" font-size="14.00">id </text>
<text text-anchor="start" x="756.89" y="-301.8" font-family="Arial" font-size="14.00" fill="#666666">[varchar(26)]</text>
<polygon fill="none" stroke="black" points="735.1,-258.8 735.1,-289.6 925.74,-289.6 925.74,-258.8 735.1,-258.8"/>
<text text-anchor="start" x="742.1" y="-271" font-family="Arial" font-size="14.00">owner_id </text>
<text text-anchor="start" x="802.81" y="-271" font-family="Arial" font-size="14.00" fill="#666666">[varchar(26)]</text>
<polygon fill="none" stroke="black" points="735.1,-228 735.1,-258.8 925.74,-258.8 925.74,-228 735.1,-228"/>
<text text-anchor="start" x="742.1" y="-240.2" font-family="Arial" font-size="14.00">name </text>
<text text-anchor="start" x="781.01" y="-240.2" font-family="Arial" font-size="14.00" fill="#666666">[varchar(30)]</text>
<polygon fill="none" stroke="black" points="735.1,-197.2 735.1,-228 925.74,-228 925.74,-197.2 735.1,-197.2"/>
<text text-anchor="start" x="742.1" y="-209.4" font-family="Arial" font-size="14.00">model </text>
<text text-anchor="start" x="784.12" y="-209.4" font-family="Arial" font-size="14.00" fill="#666666">[text]</text>
<polygon fill="none" stroke="black" points="735.1,-166.4 735.1,-197.2 925.74,-197.2 925.74,-166.4 735.1,-166.4"/>
<text text-anchor="start" x="742.1" y="-178.6" font-family="Arial" font-size="14.00">is_active </text>
<text text-anchor="start" x="800.46" y="-178.6" font-family="Arial" font-size="14.00" fill="#666666">[tinyint(1)]</text>
<polygon fill="none" stroke="black" points="735.1,-135.6 735.1,-166.4 925.74,-166.4 925.74,-135.6 735.1,-135.6"/>
<text text-anchor="start" x="742.1" y="-147.8" font-family="Arial" font-size="14.00">access_token </text>
<text text-anchor="start" x="831.6" y="-147.8" font-family="Arial" font-size="14.00" fill="#666666">[varchar(255)]</text>
<polygon fill="none" stroke="black" points="735.1,-104.8 735.1,-135.6 925.74,-135.6 925.74,-104.8 735.1,-104.8"/>
<text text-anchor="start" x="742.1" y="-117" font-family="Arial" font-size="14.00">created_at </text>
<text text-anchor="start" x="812.15" y="-117" font-family="Arial" font-size="14.00" fill="#666666">[datetime(6)]</text>
<polygon fill="none" stroke="black" points="735.1,-74 735.1,-104.8 925.74,-104.8 925.74,-74 735.1,-74"/>
<text text-anchor="start" x="742.1" y="-86.2" font-family="Arial" font-size="14.00">updated_at </text>
<text text-anchor="start" x="816.06" y="-86.2" font-family="Arial" font-size="14.00" fill="#666666">[datetime(6)]</text>
</g>
<!-- coupons -->
<g id="node4" class="node">
<title>coupons</title>
<polygon fill="#efefef" stroke="none" points="1030.18,-274.2 1030.18,-309.8 1228.67,-309.8 1228.67,-274.2 1030.18,-274.2"/>
<polygon fill="none" stroke="black" points="1030.18,-274.2 1030.18,-309.8 1228.67,-309.8 1228.67,-274.2 1030.18,-274.2"/>
<text text-anchor="start" x="1037.18" y="-287.6" font-family="Arial Bold" font-size="18.00">coupons</text>
<text text-anchor="start" x="1097.18" y="-287.6" font-family="Arial" font-size="14.00">    </text>
<text text-anchor="start" x="1128.29" y="-287.6" font-family="Arial" font-size="14.00" fill="#666666">[BASE TABLE]</text>
<polygon fill="none" stroke="black" points="1030.18,-243.4 1030.18,-274.2 1228.67,-274.2 1228.67,-243.4 1030.18,-243.4"/>
<text text-anchor="start" x="1037.18" y="-255.6" font-family="Arial" font-size="14.00">user_id </text>
<text text-anchor="start" x="1086.99" y="-255.6" font-family="Arial" font-size="14.00" fill="#666666">[varchar(26)]</text>
<polygon fill="none" stroke="black" points="1030.18,-212.6 1030.18,-243.4 1228.67,-243.4 1228.67,-212.6 1030.18,-212.6"/>
<text text-anchor="start" x="1037.18" y="-224.8" font-family="Arial" font-size="14.00">code </text>
<text text-anchor="start" x="1071.43" y="-224.8" font-family="Arial" font-size="14.00" fill="#666666">[varchar(255)]</text>
<polygon fill="none" stroke="black" points="1030.18,-181.8 1030.18,-212.6 1228.67,-212.6 1228.67,-181.8 1030.18,-181.8"/>
<text text-anchor="start" x="1037.18" y="-194" font-family="Arial" font-size="14.00">discount </text>
<text text-anchor="start" x="1093.22" y="-194" font-family="Arial" font-size="14.00" fill="#666666">[int]</text>
<polygon fill="none" stroke="black" points="1030.18,-151 1030.18,-181.8 1228.67,-181.8 1228.67,-151 1030.18,-151"/>
<text text-anchor="start" x="1037.18" y="-163.2" font-family="Arial" font-size="14.00">created_at </text>
<text text-anchor="start" x="1107.23" y="-163.2" font-family="Arial" font-size="14.00" fill="#666666">[datetime(6)]</text>
<polygon fill="none" stroke="black" points="1030.18,-120.2 1030.18,-151 1228.67,-151 1228.67,-120.2 1030.18,-120.2"/>
<text text-anchor="start" x="1037.18" y="-132.4" font-family="Arial" font-size="14.00">used_by </text>
<text text-anchor="start" x="1094" y="-132.4" font-family="Arial" font-size="14.00" fill="#666666">[varchar(26)]</text>
</g>
<!-- owners -->
<g id="node5" class="node">
<title>owners</title>
<polygon fill="#efefef" stroke="none" points="1333.48,-289.6 1333.48,-325.2 1565.37,-325.2 1565.37,-289.6 1333.48,-289.6"/>
<polygon fill="none" stroke="black" points="1333.48,-289.6 1333.48,-325.2 1565.37,-325.2 1565.37,-289.6 1333.48,-289.6"/>
<text text-anchor="start" x="1361.19" y="-303" font-family="Arial Bold" font-size="18.00">owners</text>
<text text-anchor="start" x="1413.17" y="-303" font-family="Arial" font-size="14.00">    </text>
<text text-anchor="start" x="1444.29" y="-303" font-family="Arial" font-size="14.00" fill="#666666">[BASE TABLE]</text>
<polygon fill="none" stroke="black" points="1333.48,-258.8 1333.48,-289.6 1565.37,-289.6 1565.37,-258.8 1333.48,-258.8"/>
<text text-anchor="start" x="1340.48" y="-271" font-family="Arial" font-size="14.00">id </text>
<text text-anchor="start" x="1355.27" y="-271" font-family="Arial" font-size="14.00" fill="#666666">[varchar(26)]</text>
<polygon fill="none" stroke="black" points="1333.48,-228 1333.48,-258.8 1565.37,-258.8 1565.37,-228 1333.48,-228"/>
<text text-anchor="start" x="1340.48" y="-240.2" font-family="Arial" font-size="14.00">name </text>
<text text-anchor="start" x="1379.39" y="-240.2" font-family="Arial" font-size="14.00" fill="#666666">[varchar(30)]</text>
<polygon fill="none" stroke="black" points="1333.48,-197.2 1333.48,-228 1565.37,-228 1565.37,-197.2 1333.48,-197.2"/>
<text text-anchor="start" x="1340.48" y="-209.4" font-family="Arial" font-size="14.00">access_token </text>
<text text-anchor="start" x="1429.98" y="-209.4" font-family="Arial" font-size="14.00" fill="#666666">[varchar(255)]</text>
<polygon fill="none" stroke="black" points="1333.48,-166.4 1333.48,-197.2 1565.37,-197.2 1565.37,-166.4 1333.48,-166.4"/>
<text text-anchor="start" x="1340.48" y="-178.6" font-family="Arial" font-size="14.00">chair_register_token </text>
<text text-anchor="start" x="1471.22" y="-178.6" font-family="Arial" font-size="14.00" fill="#666666">[varchar(255)]</text>
<polygon fill="none" stroke="black" points="1333.48,-135.6 1333.48,-166.4 1565.37,-166.4 1565.37,-135.6 1333.48,-135.6"/>
<text text-anchor="start" x="1340.48" y="-147.8" font-family="Arial" font-size="14.00">created_at </text>
<text text-anchor="start" x="1410.53" y="-147.8" font-family="Arial" font-size="14.00" fill="#666666">[datetime(6)]</text>
<polygon fill="none" stroke="black" points="1333.48,-104.8 1333.48,-135.6 1565.37,-135.6 1565.37,-104.8 1333.48,-104.8"/>
<text text-anchor="start" x="1340.48" y="-117" font-family="Arial" font-size="14.00">updated_at </text>
<text text-anchor="start" x="1414.44" y="-117" font-family="Arial" font-size="14.00" fill="#666666">[datetime(6)]</text>
</g>
<!-- payment_tokens -->
<g id="node6" class="node">
<title>payment_tokens</title>
<polygon fill="#efefef" stroke="none" points="1670.19,-243.4 1670.19,-279 1926.66,-279 1926.66,-243.4 1670.19,-243.4"/>
<polygon fill="none" stroke="black" points="1670.19,-243.4 1670.19,-279 1926.66,-279 1926.66,-243.4 1670.19,-243.4"/>
<text text-anchor="start" x="1677.19" y="-256.8" font-family="Arial Bold" font-size="18.00">payment_tokens</text>
<text text-anchor="start" x="1795.17" y="-256.8" font-family="Arial" font-size="14.00">    </text>
<text text-anchor="start" x="1826.28" y="-256.8" font-family="Arial" font-size="14.00" fill="#666666">[BASE TABLE]</text>
<polygon fill="none" stroke="black" points="1670.19,-212.6 1670.19,-243.4 1926.66,-243.4 1926.66,-212.6 1670.19,-212.6"/>
<text text-anchor="start" x="1677.19" y="-224.8" font-family="Arial" font-size="14.00">user_id </text>
<text text-anchor="start" x="1727" y="-224.8" font-family="Arial" font-size="14.00" fill="#666666">[varchar(26)]</text>
<polygon fill="none" stroke="black" points="1670.19,-181.8 1670.19,-212.6 1926.66,-212.6 1926.66,-181.8 1670.19,-181.8"/>
<text text-anchor="start" x="1677.19" y="-194" font-family="Arial" font-size="14.00">token </text>
<text text-anchor="start" x="1715.33" y="-194" font-family="Arial" font-size="14.00" fill="#666666">[varchar(255)]</text>
<polygon fill="none" stroke="black" points="1670.19,-151 1670.19,-181.8 1926.66,-181.8 1926.66,-151 1670.19,-151"/>
<text text-anchor="start" x="1677.19" y="-163.2" font-family="Arial" font-size="14.00">created_at </text>
<text text-anchor="start" x="1747.24" y="-163.2" font-family="Arial" font-size="14.00" fill="#666666">[datetime(6)]</text>
</g>
<!-- ride_statuses -->
<g id="node7" class="node">
<title>ride_statuses</title>
<polygon fill="#efefef" stroke="none" points="2030.74,-289.6 2030.74,-325.2 2608.11,-325.2 2608.11,-289.6 2030.74,-289.6"/>
<polygon fill="none" stroke="black" points="2030.74,-289.6 2030.74,-325.2 2608.11,-325.2 2608.11,-289.6 2030.74,-289.6"/>
<text text-anchor="start" x="2210.69" y="-303" font-family="Arial Bold" font-size="18.00">ride_statuses</text>
<text text-anchor="start" x="2303.67" y="-303" font-family="Arial" font-size="14.00">    </text>
<text text-anchor="start" x="2334.79" y="-303" font-family="Arial" font-size="14.00" fill="#666666">[BASE TABLE]</text>
<polygon fill="none" stroke="black" points="2030.74,-258.8 2030.74,-289.6 2608.11,-289.6 2608.11,-258.8 2030.74,-258.8"/>
<text text-anchor="start" x="2037.74" y="-271" font-family="Arial" font-size="14.00">id </text>
<text text-anchor="start" x="2052.52" y="-271" font-family="Arial" font-size="14.00" fill="#666666">[varchar(26)]</text>
<polygon fill="none" stroke="black" points="2030.74,-228 2030.74,-258.8 2608.11,-258.8 2608.11,-228 2030.74,-228"/>
<text text-anchor="start" x="2037.74" y="-240.2" font-family="Arial" font-size="14.00">ride_id </text>
<text text-anchor="start" x="2083.65" y="-240.2" font-family="Arial" font-size="14.00" fill="#666666">[varchar(26)]</text>
<polygon fill="none" stroke="black" points="2030.74,-197.2 2030.74,-228 2608.11,-228 2608.11,-197.2 2030.74,-197.2"/>
<text text-anchor="start" x="2037.74" y="-209.4" font-family="Arial" font-size="14.00">status </text>
<text text-anchor="start" x="2078.98" y="-209.4" font-family="Arial" font-size="14.00" fill="#666666">[enum(&#39;MATCHING&#39;,&#39;ENROUTE&#39;,&#39;PICKUP&#39;,&#39;CARRYING&#39;,&#39;ARRIVED&#39;,&#39;COMPLETED&#39;)]</text>
<polygon fill="none" stroke="black" points="2030.74,-166.4 2030.74,-197.2 2608.11,-197.2 2608.11,-166.4 2030.74,-166.4"/>
<text text-anchor="start" x="2037.74" y="-178.6" font-family="Arial" font-size="14.00">created_at </text>
<text text-anchor="start" x="2107.78" y="-178.6" font-family="Arial" font-size="14.00" fill="#666666">[datetime(6)]</text>
<polygon fill="none" stroke="black" points="2030.74,-135.6 2030.74,-166.4 2608.11,-166.4 2608.11,-135.6 2030.74,-135.6"/>
<text text-anchor="start" x="2037.74" y="-147.8" font-family="Arial" font-size="14.00">app_sent_at </text>
<text text-anchor="start" x="2118.69" y="-147.8" font-family="Arial" font-size="14.00" fill="#666666">[datetime(6)]</text>
<polygon fill="none" stroke="black" points="2030.74,-104.8 2030.74,-135.6 2608.11,-135.6 2608.11,-104.8 2030.74,-104.8"/>
<text text-anchor="start" x="2037.74" y="-117" font-family="Arial" font-size="14.00">chair_sent_at </text>
<text text-anchor="start" x="2125.68" y="-117" font-family="Arial" font-size="14.00" fill="#666666">[datetime(6)]</text>
</g>
<!-- rides -->
<g id="node8" class="node">
<title>rides</title>
<polygon fill="#efefef" stroke="none" points="2712.69,-351.2 2712.69,-386.8 2886.16,-386.8 2886.16,-351.2 2712.69,-351.2"/>
<polygon fill="none" stroke="black" points="2712.69,-351.2 2712.69,-386.8 2886.16,-386.8 2886.16,-351.2 2712.69,-351.2"/>
<text text-anchor="start" x="2719.69" y="-364.6" font-family="Arial Bold" font-size="18.00">rides</text>
<text text-anchor="start" x="2754.67" y="-364.6" font-family="Arial" font-size="14.00">    </text>
<text text-anchor="start" x="2785.79" y="-364.6" font-family="Arial" font-size="14.00" fill="#666666">[BASE TABLE]</text>
<polygon fill="none" stroke="black" points="2712.69,-320.4 2712.69,-351.2 2886.16,-351.2 2886.16,-320.4 2712.69,-320.4"/>
<text text-anchor="start" x="2719.69" y="-332.6" font-family="Arial" font-size="14.00">id </text>
<text text-anchor="start" x="2734.47" y="-332.6" font-family="Arial" font-size="14.00" fill="#666666">[varchar(26)]</text>
<polygon fill="none" stroke="black" points="2712.69,-289.6 2712.69,-320.4 2886.16,-320.4 2886.16,-289.6 2712.69,-289.6"/>
<text text-anchor="start" x="2719.69" y="-301.8" font-family="Arial" font-size="14.00">user_id </text>
<text text-anchor="start" x="2769.49" y="-301.8" font-family="Arial" font-size="14.00" fill="#666666">[varchar(26)]</text>
<polygon fill="none" stroke="black" points="2712.69,-258.8 2712.69,-289.6 2886.16,-289.6 2886.16,-258.8 2712.69,-258.8"/>
<text text-anchor="start" x="2719.69" y="-271" font-family="Arial" font-size="14.00">chair_id </text>
<text text-anchor="start" x="2772.6" y="-271" font-family="Arial" font-size="14.00" fill="#666666">[varchar(26)]</text>
<polygon fill="none" stroke="black" points="2712.69,-228 2712.69,-258.8 2886.16,-258.8 2886.16,-228 2712.69,-228"/>
<text text-anchor="start" x="2719.69" y="-240.2" font-family="Arial" font-size="14.00">pickup_latitude </text>
<text text-anchor="start" x="2816.97" y="-240.2" font-family="Arial" font-size="14.00" fill="#666666">[int]</text>
<polygon fill="none" stroke="black" points="2712.69,-197.2 2712.69,-228 2886.16,-228 2886.16,-197.2 2712.69,-197.2"/>
<text text-anchor="start" x="2719.69" y="-209.4" font-family="Arial" font-size="14.00">pickup_longitude </text>
<text text-anchor="start" x="2828.66" y="-209.4" font-family="Arial" font-size="14.00" fill="#666666">[int]</text>
<polygon fill="none" stroke="black" points="2712.69,-166.4 2712.69,-197.2 2886.16,-197.2 2886.16,-166.4 2712.69,-166.4"/>
<text text-anchor="start" x="2719.69" y="-178.6" font-family="Arial" font-size="14.00">destination_latitude </text>
<text text-anchor="start" x="2844.22" y="-178.6" font-family="Arial" font-size="14.00" fill="#666666">[int]</text>
<polygon fill="none" stroke="black" points="2712.69,-135.6 2712.69,-166.4 2886.16,-166.4 2886.16,-135.6 2712.69,-135.6"/>
<text text-anchor="start" x="2719.69" y="-147.8" font-family="Arial" font-size="14.00">destination_longitude </text>
<text text-anchor="start" x="2855.91" y="-147.8" font-family="Arial" font-size="14.00" fill="#666666">[int]</text>
<polygon fill="none" stroke="black" points="2712.69,-104.8 2712.69,-135.6 2886.16,-135.6 2886.16,-104.8 2712.69,-104.8"/>
<text text-anchor="start" x="2719.69" y="-117" font-family="Arial" font-size="14.00">evaluation </text>
<text text-anchor="start" x="2787.4" y="-117" font-family="Arial" font-size="14.00" fill="#666666">[int]</text>
<polygon fill="none" stroke="black" points="2712.69,-74 2712.69,-104.8 2886.16,-104.8 2886.16,-74 2712.69,-74"/>
<text text-anchor="start" x="2719.69" y="-86.2" font-family="Arial" font-size="14.00">created_at </text>
<text text-anchor="start" x="2789.73" y="-86.2" font-family="Arial" font-size="14.00" fill="#666666">[datetime(6)]</text>
<polygon fill="none" stroke="black" points="2712.69,-43.2 2712.69,-74 2886.16,-74 2886.16,-43.2 2712.69,-43.2"/>
<text text-anchor="start" x="2719.69" y="-55.4" font-family="Arial" font-size="14.00">updated_at </text>
<text text-anchor="start" x="2793.64" y="-55.4" font-family="Arial" font-size="14.00" fill="#666666">[datetime(6)]</text>
</g>
<!-- settings -->
<g id="node9" class="node">
<title>settings</title>
<polygon fill="#efefef" stroke="none" points="2990.68,-228 2990.68,-263.6 3184.17,-263.6 3184.17,-228 2990.68,-228"/>
<polygon fill="none" stroke="black" points="2990.68,-228 2990.68,-263.6 3184.17,-263.6 3184.17,-228 2990.68,-228"/>
<text text-anchor="start" x="2997.68" y="-241.4" font-family="Arial Bold" font-size="18.00">settings</text>
<text text-anchor="start" x="3052.68" y="-241.4" font-family="Arial" font-size="14.00">    </text>
<text text-anchor="start" x="3083.8" y="-241.4" font-family="Arial" font-size="14.00" fill="#666666">[BASE TABLE]</text>
<polygon fill="none" stroke="black" points="2990.68,-197.2 2990.68,-228 3184.17,-228 3184.17,-197.2 2990.68,-197.2"/>
<text text-anchor="start" x="2997.68" y="-209.4" font-family="Arial" font-size="14.00">name </text>
<text text-anchor="start" x="3036.59" y="-209.4" font-family="Arial" font-size="14.00" fill="#666666">[varchar(30)]</text>
<polygon fill="none" stroke="black" points="2990.68,-166.4 2990.68,-197.2 3184.17,-197.2 3184.17,-166.4 2990.68,-166.4"/>
<text text-anchor="start" x="2997.68" y="-178.6" font-family="Arial" font-size="14.00">value </text>
<text text-anchor="start" x="3035.04" y="-178.6" font-family="Arial" font-size="14.00" fill="#666666">[text]</text>
</g>
<!-- users -->
<g id="node10" class="node">
<title>users</title>
<polygon fill="#efefef" stroke="none" points="3288.1,-335.8 3288.1,-371.4 3478.75,-371.4 3478.75,-335.8 3288.1,-335.8"/>
<polygon fill="none" stroke="black" points="3288.1,-335.8 3288.1,-371.4 3478.75,-371.4 3478.75,-335.8 3288.1,-335.8"/>
<text text-anchor="start" x="3302.68" y="-349.2" font-family="Arial Bold" font-size="18.00">users</text>
<text text-anchor="start" x="3339.68" y="-349.2" font-family="Arial" font-size="14.00">    </text>
<text text-anchor="start" x="3370.79" y="-349.2" font-family="Arial" font-size="14.00" fill="#666666">[BASE TABLE]</text>
<polygon fill="none" stroke="black" points="3288.1,-305 3288.1,-335.8 3478.75,-335.8 3478.75,-305 3288.1,-305"/>
<text text-anchor="start" x="3295.1" y="-317.2" font-family="Arial" font-size="14.00">id </text>
<text text-anchor="start" x="3309.89" y="-317.2" font-family="Arial" font-size="14.00" fill="#666666">[varchar(26)]</text>
<polygon fill="none" stroke="black" points="3288.1,-274.2 3288.1,-305 3478.75,-305 3478.75,-274.2 3288.1,-274.2"/>
<text text-anchor="start" x="3295.1" y="-286.4" font-family="Arial" font-size="14.00">username </text>
<text text-anchor="start" x="3361.25" y="-286.4" font-family="Arial" font-size="14.00" fill="#666666">[varchar(30)]</text>
<polygon fill="none" stroke="black" points="3288.1,-243.4 3288.1,-274.2 3478.75,-274.2 3478.75,-243.4 3288.1,-243.4"/>
<text text-anchor="start" x="3295.1" y="-255.6" font-family="Arial" font-size="14.00">firstname </text>
<text text-anchor="start" x="3356.56" y="-255.6" font-family="Arial" font-size="14.00" fill="#666666">[varchar(30)]</text>
<polygon fill="none" stroke="black" points="3288.1,-212.6 3288.1,-243.4 3478.75,-243.4 3478.75,-212.6 3288.1,-212.6"/>
<text text-anchor="start" x="3295.1" y="-224.8" font-family="Arial" font-size="14.00">lastname </text>
<text text-anchor="start" x="3355.8" y="-224.8" font-family="Arial" font-size="14.00" fill="#666666">[varchar(30)]</text>
<polygon fill="none" stroke="black" points="3288.1,-181.8 3288.1,-212.6 3478.75,-212.6 3478.75,-181.8 3288.1,-181.8"/>
<text text-anchor="start" x="3295.1" y="-194" font-family="Arial" font-size="14.00">date_of_birth </text>
<text text-anchor="start" x="3380.72" y="-194" font-family="Arial" font-size="14.00" fill="#666666">[varchar(30)]</text>
<polygon fill="none" stroke="black" points="3288.1,-151 3288.1,-181.8 3478.75,-181.8 3478.75,-151 3288.1,-151"/>
<text text-anchor="start" x="3295.1" y="-163.2" font-family="Arial" font-size="14.00">access_token </text>
<text text-anchor="start" x="3384.6" y="-163.2" font-family="Arial" font-size="14.00" fill="#666666">[varchar(255)]</text>
<polygon fill="none" stroke="black" points="3288.1,-120.2 3288.1,-151 3478.75,-151 3478.75,-120.2 3288.1,-120.2"/>
<text text-anchor="start" x="3295.1" y="-132.4" font-family="Arial" font-size="14.00">invitation_code </text>
<text text-anchor="start" x="3392.39" y="-132.4" font-family="Arial" font-size="14.00" fill="#666666">[varchar(30)]</text>
<polygon fill="none" stroke="black" points="3288.1,-89.4 3288.1,-120.2 3478.75,-120.2 3478.75,-89.4 3288.1,-89.4"/>
<text text-anchor="start" x="3295.1" y="-101.6" font-family="Arial" font-size="14.00">created_at </text>
<text text-anchor="start" x="3365.15" y="-101.6" font-family="Arial" font-size="14.00" fill="#666666">[datetime(6)]</text>
<polygon fill="none" stroke="black" points="3288.1,-58.6 3288.1,-89.4 3478.75,-89.4 3478.75,-58.6 3288.1,-58.6"/>
<text text-anchor="start" x="3295.1" y="-70.8" font-family="Arial" font-size="14.00">updated_at </text>
<text text-anchor="start" x="3369.06" y="-70.8" font-family="Arial" font-size="14.00" fill="#666666">[datetime(6)]</text>
</g>
</g>
</svg>
