<?xml version="1.0" encoding="UTF-8" standalone="no"?>
<!DOCTYPE svg PUBLIC "-//W3C//DTD SVG 1.1//EN"
 "http://www.w3.org/Graphics/SVG/1.1/DTD/svg11.dtd">
<!-- Generated by graphviz version 12.1.2 (20240928.0832)
 -->
<!-- Title: users Pages: 1 -->
<svg width="291pt" height="413pt"
 viewBox="0.00 0.00 291.05 413.20" xmlns="http://www.w3.org/2000/svg" xmlns:xlink="http://www.w3.org/1999/xlink">
<g id="graph0" class="graph" transform="scale(1 1) rotate(0) translate(4 409.2)">
<title>users</title>
<polygon fill="white" stroke="none" points="-4,4 -4,-409.2 287.05,-409.2 287.05,4 -4,4"/>
<!-- users -->
<g id="node1" class="node">
<title>users</title>
<polygon fill="#efefef" stroke="none" points="46.2,-323.4 46.2,-359 236.85,-359 236.85,-323.4 46.2,-323.4"/>
<polygon fill="none" stroke="black" points="46.2,-323.4 46.2,-359 236.85,-359 236.85,-323.4 46.2,-323.4"/>
<text text-anchor="start" x="60.78" y="-336.8" font-family="Arial Bold" font-size="18.00">users</text>
<text text-anchor="start" x="97.78" y="-336.8" font-family="Arial" font-size="14.00">    </text>
<text text-anchor="start" x="128.89" y="-336.8" font-family="Arial" font-size="14.00" fill="#666666">[BASE TABLE]</text>
<polygon fill="none" stroke="black" points="46.2,-292.6 46.2,-323.4 236.85,-323.4 236.85,-292.6 46.2,-292.6"/>
<text text-anchor="start" x="53.2" y="-304.8" font-family="Arial" font-size="14.00">id </text>
<text text-anchor="start" x="67.99" y="-304.8" font-family="Arial" font-size="14.00" fill="#666666">[varchar(26)]</text>
<polygon fill="none" stroke="black" points="46.2,-261.8 46.2,-292.6 236.85,-292.6 236.85,-261.8 46.2,-261.8"/>
<text text-anchor="start" x="53.2" y="-274" font-family="Arial" font-size="14.00">username </text>
<text text-anchor="start" x="119.34" y="-274" font-family="Arial" font-size="14.00" fill="#666666">[varchar(30)]</text>
<polygon fill="none" stroke="black" points="46.2,-231 46.2,-261.8 236.85,-261.8 236.85,-231 46.2,-231"/>
<text text-anchor="start" x="53.2" y="-243.2" font-family="Arial" font-size="14.00">firstname </text>
<text text-anchor="start" x="114.66" y="-243.2" font-family="Arial" font-size="14.00" fill="#666666">[varchar(30)]</text>
<polygon fill="none" stroke="black" points="46.2,-200.2 46.2,-231 236.85,-231 236.85,-200.2 46.2,-200.2"/>
<text text-anchor="start" x="53.2" y="-212.4" font-family="Arial" font-size="14.00">lastname </text>
<text text-anchor="start" x="113.9" y="-212.4" font-family="Arial" font-size="14.00" fill="#666666">[varchar(30)]</text>
<polygon fill="none" stroke="black" points="46.2,-169.4 46.2,-200.2 236.85,-200.2 236.85,-169.4 46.2,-169.4"/>
<text text-anchor="start" x="53.2" y="-181.6" font-family="Arial" font-size="14.00">date_of_birth </text>
<text text-anchor="start" x="138.82" y="-181.6" font-family="Arial" font-size="14.00" fill="#666666">[varchar(30)]</text>
<polygon fill="none" stroke="black" points="46.2,-138.6 46.2,-169.4 236.85,-169.4 236.85,-138.6 46.2,-138.6"/>
<text text-anchor="start" x="53.2" y="-150.8" font-family="Arial" font-size="14.00">access_token </text>
<text text-anchor="start" x="142.7" y="-150.8" font-family="Arial" font-size="14.00" fill="#666666">[varchar(255)]</text>
<polygon fill="none" stroke="black" points="46.2,-107.8 46.2,-138.6 236.85,-138.6 236.85,-107.8 46.2,-107.8"/>
<text text-anchor="start" x="53.2" y="-120" font-family="Arial" font-size="14.00">invitation_code </text>
<text text-anchor="start" x="150.49" y="-120" font-family="Arial" font-size="14.00" fill="#666666">[varchar(30)]</text>
<polygon fill="none" stroke="black" points="46.2,-77 46.2,-107.8 236.85,-107.8 236.85,-77 46.2,-77"/>
<text text-anchor="start" x="53.2" y="-89.2" font-family="Arial" font-size="14.00">created_at </text>
<text text-anchor="start" x="123.25" y="-89.2" font-family="Arial" font-size="14.00" fill="#666666">[datetime(6)]</text>
<polygon fill="none" stroke="black" points="46.2,-46.2 46.2,-77 236.85,-77 236.85,-46.2 46.2,-46.2"/>
<text text-anchor="start" x="53.2" y="-58.4" font-family="Arial" font-size="14.00">updated_at </text>
<text text-anchor="start" x="127.16" y="-58.4" font-family="Arial" font-size="14.00" fill="#666666">[datetime(6)]</text>
<polygon fill="none" stroke="black" stroke-width="3" points="44.7,-44.7 44.7,-360.5 238.35,-360.5 238.35,-44.7 44.7,-44.7"/>
</g>
</g>
</svg>
